<?xml version="1.0" encoding="UTF-8"?><svg xmlns="http://www.w3.org/2000/svg" xmlns:xlink="http://www.w3.org/1999/xlink" contentScriptType="text/ecmascript" width="750" zoomAndPan="magnify" contentStyleType="text/css" viewBox="0 0 750 749.999995" height="749.999995" preserveAspectRatio="xMidYMid meet" version="1.0"><defs><clipPath id="clip-0"><path d="M 98 244.089844 L 750 244.089844 L 750 505.839844 L 98 505.839844 Z M 98 244.089844 " clip-rule="nonzero"/></clipPath><clipPath id="clip-1"><path d="M 0 244.089844 L 150 244.089844 L 150 505.839844 L 0 505.839844 Z M 0 244.089844 " clip-rule="nonzero"/></clipPath></defs><g clip-path="url(#clip-0)"><path fill="rgb(95.689392%, 85.099792%, 70.199585%)" d="M 98.355469 244.121094 L 750 244.121094 L 750 505.78125 L 98.355469 505.78125 Z M 98.355469 244.121094 " fill-opacity="1" fill-rule="nonzero"/></g><g clip-path="url(#clip-1)"><path fill="rgb(100%, 61.959839%, 0.389099%)" d="M 0 301.796875 L 0 448.101562 L 57.691406 505.78125 L 149.890625 505.78125 L 149.890625 244.121094 L 57.691406 244.121094 Z M 84.058594 374.949219 C 84.058594 384.570312 76.257812 392.371094 66.632812 392.371094 C 57.011719 392.371094 49.210938 384.570312 49.210938 374.949219 C 49.210938 365.332031 57.011719 357.53125 66.632812 357.53125 C 76.257812 357.53125 84.058594 365.332031 84.058594 374.949219 Z M 84.058594 374.949219 " fill-opacity="1" fill-rule="nonzero"/></g><path fill="rgb(100%, 61.959839%, 0.389099%)" d="M 179.070312 281.28125 C 181.933594 281.28125 184.582031 280.472656 186.527344 279.015625 L 188.121094 271.046875 L 183.394531 271.046875 L 182.3125 276.394531 C 181.503906 276.71875 180.664062 276.851562 179.800781 276.851562 C 176.695312 276.851562 174.96875 275.152344 174.96875 272.613281 C 174.96875 268.832031 177.453125 266.054688 181.34375 266.054688 C 183.285156 266.054688 184.746094 266.59375 185.988281 268.132812 L 189.824219 265.105469 C 188.121094 262.839844 185.367188 261.621094 181.585938 261.621094 C 174.402344 261.621094 169.566406 266.402344 169.566406 272.964844 C 169.566406 277.90625 173.292969 281.28125 179.070312 281.28125 Z M 179.070312 281.28125 " fill-opacity="1" fill-rule="nonzero"/><path fill="rgb(100%, 61.959839%, 0.389099%)" d="M 198.671875 262.003906 L 193.324219 262.003906 L 189.542969 280.902344 L 203.910156 280.902344 L 204.777344 276.664062 L 195.757812 276.664062 Z M 198.671875 262.003906 " fill-opacity="1" fill-rule="nonzero"/><path fill="rgb(100%, 61.959839%, 0.389099%)" d="M 218.332031 261.625 C 211.390625 261.625 206.527344 266.402344 206.527344 272.964844 C 206.527344 277.855469 210.121094 281.28125 215.925781 281.28125 C 222.867188 281.28125 227.726562 276.503906 227.726562 269.941406 C 227.726562 265.050781 224.136719 261.625 218.332031 261.625 Z M 216.386719 276.851562 C 213.550781 276.851562 211.929688 275.152344 211.929688 272.640625 C 211.929688 269.078125 214.171875 266.054688 217.871094 266.054688 C 220.707031 266.054688 222.328125 267.753906 222.328125 270.265625 C 222.328125 273.828125 220.085938 276.851562 216.386719 276.851562 Z M 216.386719 276.851562 " fill-opacity="1" fill-rule="nonzero"/><path fill="rgb(100%, 61.959839%, 0.389099%)" d="M 245.089844 271.15625 C 247.140625 270.292969 248.464844 268.699219 248.464844 266.429688 C 248.464844 263.59375 246.167969 262.003906 241.902344 262.003906 L 232.339844 262.003906 L 228.558594 280.902344 L 238.957031 280.902344 C 243.820312 280.902344 247.628906 279.015625 247.628906 274.910156 C 247.628906 273.152344 246.710938 271.859375 245.089844 271.15625 Z M 239.253906 277.042969 L 234.609375 277.042969 L 235.363281 273.207031 L 240.089844 273.207031 C 241.386719 273.207031 242.304688 273.667969 242.304688 274.800781 C 242.308594 276.3125 241.117188 277.042969 239.253906 277.042969 Z M 239.957031 269.507812 L 236.121094 269.507812 L 236.851562 265.863281 L 240.632812 265.863281 C 242.035156 265.863281 242.875 266.324219 242.875 267.347656 C 242.875 268.753906 241.847656 269.507812 239.957031 269.507812 Z M 239.957031 269.507812 " fill-opacity="1" fill-rule="nonzero"/><path fill="rgb(100%, 61.959839%, 0.389099%)" d="M 259.179688 262.003906 L 247.054688 280.902344 L 252.699219 280.902344 L 254.886719 277.230469 L 262.933594 277.230469 L 263.691406 280.902344 L 269.011719 280.902344 L 264.445312 262.003906 Z M 257.234375 273.289062 L 260.855469 267.160156 L 262.125 273.289062 Z M 257.234375 273.289062 " fill-opacity="1" fill-rule="nonzero"/><path fill="rgb(100%, 61.959839%, 0.389099%)" d="M 279.671875 262.003906 L 274.324219 262.003906 L 270.542969 280.902344 L 284.910156 280.902344 L 285.777344 276.664062 L 276.757812 276.664062 Z M 279.671875 262.003906 " fill-opacity="1" fill-rule="nonzero"/><path fill="rgb(100%, 61.959839%, 0.389099%)" d="M 304.726562 262.003906 L 292.601562 280.902344 L 298.246094 280.902344 L 300.433594 277.230469 L 308.484375 277.230469 L 309.238281 280.902344 L 314.558594 280.902344 L 309.996094 262.003906 Z M 302.78125 273.289062 L 306.402344 267.160156 L 307.671875 273.289062 Z M 302.78125 273.289062 " fill-opacity="1" fill-rule="nonzero"/><path fill="rgb(100%, 61.959839%, 0.389099%)" d="M 316.09375 280.902344 L 321.441406 280.902344 L 325.222656 262.003906 L 319.875 262.003906 Z M 316.09375 280.902344 " fill-opacity="1" fill-rule="nonzero"/><path fill="rgb(100%, 61.959839%, 0.389099%)" d="M 344.71875 268.023438 C 344.71875 264.242188 341.9375 262.003906 337.101562 262.003906 L 329.027344 262.003906 L 325.246094 280.902344 L 330.59375 280.902344 L 331.59375 275.882812 L 334.292969 275.882812 L 337.101562 280.902344 L 342.691406 280.902344 L 339.480469 275.234375 C 342.773438 274.101562 344.71875 271.507812 344.71875 268.023438 Z M 335.589844 271.75 L 332.402344 271.75 L 333.535156 266.214844 L 336.34375 266.214844 C 338.179688 266.214844 339.316406 266.945312 339.316406 268.535156 C 339.316406 270.617188 337.9375 271.75 335.589844 271.75 Z M 335.589844 271.75 " fill-opacity="1" fill-rule="nonzero"/><path fill="rgb(100%, 61.959839%, 0.389099%)" d="M 373.367188 262.003906 L 366.9375 274.234375 L 365.589844 262.003906 L 360.648438 262.003906 L 354.273438 274.074219 L 352.8125 262.003906 L 347.546875 262.003906 L 349.867188 280.902344 L 355.621094 280.902344 L 361.644531 269.507812 L 363.023438 280.902344 L 368.746094 280.902344 L 378.660156 262.003906 Z M 373.367188 262.003906 " fill-opacity="1" fill-rule="nonzero"/><path fill="rgb(100%, 61.959839%, 0.389099%)" d="M 385.996094 262.003906 L 373.871094 280.902344 L 379.515625 280.902344 L 381.703125 277.230469 L 389.75 277.230469 L 390.507812 280.902344 L 395.828125 280.902344 L 391.265625 262.003906 Z M 384.050781 273.289062 L 387.671875 267.160156 L 388.941406 273.289062 Z M 384.050781 273.289062 " fill-opacity="1" fill-rule="nonzero"/><path fill="rgb(100%, 61.959839%, 0.389099%)" d="M 406.300781 280.902344 L 407.625 274.207031 L 417.320312 262.003906 L 411.890625 262.003906 L 405.84375 269.535156 L 402.871094 262.003906 L 397.496094 262.003906 L 402.304688 274.074219 L 400.953125 280.902344 Z M 406.300781 280.902344 " fill-opacity="1" fill-rule="nonzero"/><path fill="rgb(100%, 61.959839%, 0.389099%)" d="M 430.632812 274.558594 C 430.632812 268.726562 421.421875 270.210938 421.449219 267.617188 C 421.449219 266.589844 422.636719 265.78125 424.851562 265.78125 C 426.714844 265.78125 428.554688 266.265625 430.039062 267.210938 L 431.980469 263.242188 C 430.28125 262.191406 427.851562 261.621094 425.175781 261.621094 C 419.585938 261.621094 416.101562 264.296875 416.101562 268.371094 C 416.101562 274.3125 425.285156 272.910156 425.285156 275.445312 C 425.285156 276.472656 424.097656 277.121094 422.042969 277.121094 C 419.882812 277.121094 417.667969 276.472656 415.753906 275.257812 L 413.644531 279.253906 C 415.347656 280.414062 418.292969 281.277344 421.53125 281.277344 C 427.066406 281.28125 430.632812 278.609375 430.632812 274.558594 Z M 430.632812 274.558594 " fill-opacity="1" fill-rule="nonzero"/><path fill="rgb(100%, 61.959839%, 0.389099%)" d="M 449.195312 260.738281 L 449.195312 491.417969 L 450.695312 491.417969 L 450.695312 378.421875 L 729.589844 378.421875 L 729.589844 260.738281 Z M 450.695312 262.234375 L 588.644531 262.234375 L 588.644531 376.921875 L 450.695312 376.921875 Z M 728.089844 376.921875 L 590.144531 376.921875 L 590.144531 262.234375 L 728.089844 262.234375 Z M 728.089844 376.921875 " fill-opacity="1" fill-rule="nonzero"/><path fill="rgb(100%, 61.959839%, 0.389099%)" d="M 459.996094 282.398438 L 461.34375 282.398438 L 461.34375 278.578125 L 466.085938 278.578125 L 466.085938 277.417969 L 461.34375 277.417969 L 461.34375 274.125 L 466.664062 274.125 L 466.664062 272.949219 L 459.996094 272.949219 Z M 459.996094 282.398438 " fill-opacity="1" fill-rule="nonzero"/><path fill="rgb(100%, 61.959839%, 0.389099%)" d="M 469.917969 272.949219 L 468.566406 272.949219 L 468.566406 282.398438 L 475.035156 282.398438 L 475.035156 281.226562 L 469.917969 281.226562 Z M 469.917969 272.949219 " fill-opacity="1" fill-rule="nonzero"/><path fill="rgb(100%, 61.959839%, 0.389099%)" d="M 476.585938 272.949219 L 477.9375 272.949219 L 477.9375 282.402344 L 476.585938 282.402344 Z M 476.585938 272.949219 " fill-opacity="1" fill-rule="nonzero"/><path fill="rgb(100%, 61.959839%, 0.389099%)" d="M 485.117188 274.042969 C 486.183594 274.042969 487.078125 274.378906 487.859375 275.136719 L 488.695312 274.300781 C 487.832031 273.339844 486.5625 272.839844 485.0625 272.839844 C 482.132812 272.839844 480 274.878906 480 277.671875 C 480 280.46875 482.132812 282.507812 485.035156 282.507812 C 486.359375 282.507812 487.671875 282.101562 488.617188 281.304688 L 488.617188 277.621094 L 487.320312 277.621094 L 487.320312 280.699219 C 486.644531 281.128906 485.902344 281.304688 485.105469 281.304688 C 482.929688 281.304688 481.351562 279.753906 481.351562 277.671875 C 481.351562 275.566406 482.929688 274.042969 485.117188 274.042969 Z M 485.117188 274.042969 " fill-opacity="1" fill-rule="nonzero"/><path fill="rgb(100%, 61.959839%, 0.389099%)" d="M 497.96875 277.011719 L 492.542969 277.011719 L 492.542969 272.949219 L 491.191406 272.949219 L 491.191406 282.398438 L 492.542969 282.398438 L 492.542969 278.1875 L 497.96875 278.1875 L 497.96875 282.398438 L 499.320312 282.398438 L 499.320312 272.949219 L 497.96875 272.949219 Z M 497.96875 277.011719 " fill-opacity="1" fill-rule="nonzero"/><path fill="rgb(100%, 61.959839%, 0.389099%)" d="M 500.789062 272.949219 L 500.789062 274.125 L 504.03125 274.125 L 504.03125 282.398438 L 505.367188 282.398438 L 505.367188 274.125 L 508.609375 274.125 L 508.609375 272.949219 Z M 500.789062 272.949219 " fill-opacity="1" fill-rule="nonzero"/><path fill="rgb(100%, 61.959839%, 0.389099%)" d="M 599.792969 282.398438 L 601.238281 282.398438 L 603.816406 274.851562 L 606.398438 282.398438 L 607.816406 282.398438 L 610.972656 272.949219 L 609.691406 272.949219 L 607.085938 280.671875 L 604.480469 272.949219 L 603.238281 272.949219 L 600.578125 280.632812 L 598.023438 272.949219 L 596.632812 272.949219 Z M 599.792969 282.398438 " fill-opacity="1" fill-rule="nonzero"/><path fill="rgb(100%, 61.959839%, 0.389099%)" d="M 619.476562 281.226562 L 613.96875 281.226562 L 613.96875 278.175781 L 618.707031 278.175781 L 618.707031 277.027344 L 613.96875 277.027344 L 613.96875 274.125 L 619.289062 274.125 L 619.289062 272.949219 L 612.617188 272.949219 L 612.617188 282.398438 L 619.476562 282.398438 Z M 619.476562 281.226562 " fill-opacity="1" fill-rule="nonzero"/><path fill="rgb(100%, 61.959839%, 0.389099%)" d="M 621.660156 272.949219 L 623.011719 272.949219 L 623.011719 282.402344 L 621.660156 282.402344 Z M 621.660156 272.949219 " fill-opacity="1" fill-rule="nonzero"/><path fill="rgb(100%, 61.959839%, 0.389099%)" d="M 630.113281 282.507812 C 631.4375 282.507812 632.746094 282.101562 633.691406 281.308594 L 633.691406 277.621094 L 632.398438 277.621094 L 632.398438 280.699219 C 631.722656 281.132812 630.980469 281.308594 630.179688 281.308594 C 628.007812 281.308594 626.429688 279.753906 626.429688 277.675781 C 626.429688 275.570312 628.007812 274.042969 630.195312 274.042969 C 631.261719 274.042969 632.152344 274.378906 632.9375 275.136719 L 633.773438 274.300781 C 632.910156 273.339844 631.640625 272.839844 630.140625 272.839844 C 627.210938 272.839844 625.078125 274.878906 625.078125 277.671875 C 625.078125 280.46875 627.210938 282.507812 630.113281 282.507812 Z M 630.113281 282.507812 " fill-opacity="1" fill-rule="nonzero"/><path fill="rgb(100%, 61.959839%, 0.389099%)" d="M 637.621094 278.1875 L 643.046875 278.1875 L 643.046875 282.398438 L 644.398438 282.398438 L 644.398438 272.949219 L 643.046875 272.949219 L 643.046875 277.011719 L 637.621094 277.011719 L 637.621094 272.949219 L 636.269531 272.949219 L 636.269531 282.398438 L 637.621094 282.398438 Z M 637.621094 278.1875 " fill-opacity="1" fill-rule="nonzero"/><path fill="rgb(100%, 61.959839%, 0.389099%)" d="M 649.109375 282.398438 L 650.445312 282.398438 L 650.445312 274.125 L 653.6875 274.125 L 653.6875 272.949219 L 645.867188 272.949219 L 645.867188 274.125 L 649.109375 274.125 Z M 649.109375 282.398438 " fill-opacity="1" fill-rule="nonzero"/><path fill="rgb(100%, 61.959839%, 0.389099%)" d="M 466.355469 395.625 C 467.097656 395.257812 467.625 394.542969 467.625 393.515625 C 467.625 391.988281 466.410156 391.074219 464.234375 391.074219 L 459.996094 391.074219 L 459.996094 400.523438 L 464.503906 400.523438 C 466.894531 400.523438 468.121094 399.59375 468.121094 397.972656 C 468.121094 396.714844 467.421875 395.917969 466.355469 395.625 Z M 461.34375 392.167969 L 464.113281 392.167969 C 465.492188 392.167969 466.273438 392.679688 466.273438 393.679688 C 466.273438 394.675781 465.492188 395.191406 464.113281 395.191406 L 461.34375 395.191406 Z M 464.449219 399.429688 L 461.347656 399.429688 L 461.347656 396.285156 L 464.449219 396.285156 C 465.949219 396.285156 466.757812 396.769531 466.757812 397.863281 C 466.757812 398.960938 465.949219 399.429688 464.449219 399.429688 Z M 464.449219 399.429688 " fill-opacity="1" fill-rule="nonzero"/><path fill="rgb(100%, 61.959839%, 0.389099%)" d="M 473.0625 391.074219 L 468.78125 400.523438 L 470.171875 400.523438 L 471.210938 398.160156 L 476.238281 398.160156 L 477.277344 400.523438 L 478.695312 400.523438 L 474.398438 391.074219 Z M 471.683594 397.082031 L 473.722656 392.449219 L 475.761719 397.082031 Z M 471.683594 397.082031 " fill-opacity="1" fill-rule="nonzero"/><path fill="rgb(100%, 61.959839%, 0.389099%)" d="M 484.308594 392.167969 C 485.375 392.167969 486.265625 392.503906 487.050781 393.261719 L 487.886719 392.421875 C 487.023438 391.464844 485.753906 390.964844 484.253906 390.964844 C 481.324219 390.964844 479.191406 393.003906 479.191406 395.796875 C 479.191406 398.59375 481.324219 400.632812 484.226562 400.632812 C 485.550781 400.632812 486.859375 400.226562 487.804688 399.429688 L 487.804688 395.746094 L 486.511719 395.746094 L 486.511719 398.824219 C 485.835938 399.253906 485.09375 399.429688 484.292969 399.429688 C 482.121094 399.429688 480.542969 397.878906 480.542969 395.796875 C 480.542969 393.691406 482.121094 392.167969 484.308594 392.167969 Z M 484.308594 392.167969 " fill-opacity="1" fill-rule="nonzero"/><path fill="rgb(100%, 61.959839%, 0.389099%)" d="M 494.730469 392.167969 C 495.796875 392.167969 496.6875 392.503906 497.472656 393.261719 L 498.308594 392.421875 C 497.445312 391.464844 496.175781 390.964844 494.675781 390.964844 C 491.746094 390.964844 489.613281 393.003906 489.613281 395.796875 C 489.613281 398.59375 491.746094 400.632812 494.648438 400.632812 C 495.972656 400.632812 497.28125 400.226562 498.226562 399.429688 L 498.226562 395.746094 L 496.933594 395.746094 L 496.933594 398.824219 C 496.257812 399.253906 495.515625 399.429688 494.714844 399.429688 C 492.542969 399.429688 490.960938 397.878906 490.960938 395.796875 C 490.964844 393.691406 492.542969 392.167969 494.730469 392.167969 Z M 494.730469 392.167969 " fill-opacity="1" fill-rule="nonzero"/><path fill="rgb(100%, 61.959839%, 0.389099%)" d="M 503.652344 391.074219 L 499.371094 400.523438 L 500.765625 400.523438 L 501.800781 398.160156 L 506.828125 398.160156 L 507.867188 400.523438 L 509.285156 400.523438 L 504.988281 391.074219 Z M 502.277344 397.082031 L 504.316406 392.449219 L 506.355469 397.082031 Z M 502.277344 397.082031 " fill-opacity="1" fill-rule="nonzero"/><path fill="rgb(100%, 61.959839%, 0.389099%)" d="M 514.902344 392.167969 C 515.96875 392.167969 516.859375 392.503906 517.640625 393.261719 L 518.480469 392.421875 C 517.617188 391.464844 516.34375 390.964844 514.847656 390.964844 C 511.914062 390.964844 509.78125 393.003906 509.78125 395.796875 C 509.78125 398.59375 511.914062 400.632812 514.816406 400.632812 C 516.140625 400.632812 517.453125 400.226562 518.398438 399.429688 L 518.398438 395.746094 L 517.101562 395.746094 L 517.101562 398.824219 C 516.425781 399.253906 515.683594 399.429688 514.886719 399.429688 C 512.710938 399.429688 511.132812 397.878906 511.132812 395.796875 C 511.132812 393.691406 512.710938 392.167969 514.902344 392.167969 Z M 514.902344 392.167969 " fill-opacity="1" fill-rule="nonzero"/><path fill="rgb(100%, 61.959839%, 0.389099%)" d="M 522.324219 396.296875 L 527.0625 396.296875 L 527.0625 395.148438 L 522.324219 395.148438 L 522.324219 392.246094 L 527.644531 392.246094 L 527.644531 391.074219 L 520.972656 391.074219 L 520.972656 400.523438 L 527.832031 400.523438 L 527.832031 399.347656 L 522.324219 399.347656 Z M 522.324219 396.296875 " fill-opacity="1" fill-rule="nonzero"/><path fill="rgb(100%, 61.959839%, 0.389099%)" d="M 535.121094 390.503906 C 534.09375 392.113281 533.515625 394.339844 533.515625 396.824219 C 533.515625 399.308594 534.09375 401.507812 535.121094 403.140625 L 536.347656 403.140625 C 535.253906 401.226562 534.78125 399.183594 534.78125 396.824219 C 534.78125 394.460938 535.253906 392.421875 536.347656 390.503906 Z M 535.121094 390.503906 " fill-opacity="1" fill-rule="nonzero"/><path fill="rgb(100%, 61.959839%, 0.389099%)" d="M 542.492188 392.167969 C 543.53125 392.167969 544.421875 392.515625 545.152344 393.289062 L 546.03125 392.4375 C 545.167969 391.464844 543.894531 390.964844 542.4375 390.964844 C 539.558594 390.964844 537.425781 393.003906 537.425781 395.800781 C 537.425781 398.59375 539.558594 400.632812 542.421875 400.632812 C 543.894531 400.632812 545.164062 400.121094 546.027344 399.148438 L 545.148438 398.300781 C 544.421875 399.070312 543.53125 399.433594 542.488281 399.433594 C 540.355469 399.433594 538.777344 397.894531 538.777344 395.800781 C 538.777344 393.707031 540.359375 392.167969 542.492188 392.167969 Z M 542.492188 392.167969 " fill-opacity="1" fill-rule="nonzero"/><path fill="rgb(100%, 61.959839%, 0.389099%)" d="M 549.308594 391.074219 L 547.957031 391.074219 L 547.957031 400.523438 L 554.425781 400.523438 L 554.425781 399.347656 L 549.308594 399.347656 Z M 549.308594 391.074219 " fill-opacity="1" fill-rule="nonzero"/><path fill="rgb(100%, 61.959839%, 0.389099%)" d="M 558.867188 391.074219 L 554.585938 400.523438 L 555.976562 400.523438 L 557.015625 398.160156 L 562.039062 398.160156 L 563.078125 400.523438 L 564.496094 400.523438 L 560.203125 391.074219 Z M 557.488281 397.082031 L 559.527344 392.449219 L 561.566406 397.082031 Z M 557.488281 397.082031 " fill-opacity="1" fill-rule="nonzero"/><path fill="rgb(100%, 61.959839%, 0.389099%)" d="M 565.898438 391.074219 L 567.25 391.074219 L 567.25 400.523438 L 565.898438 400.523438 Z M 565.898438 391.074219 " fill-opacity="1" fill-rule="nonzero"/><path fill="rgb(100%, 61.959839%, 0.389099%)" d="M 579.023438 391.074219 L 575.132812 397.714844 L 571.191406 391.074219 L 570.082031 391.074219 L 570.082031 400.523438 L 571.378906 400.523438 L 571.378906 393.679688 L 574.796875 399.375 L 575.417969 399.375 L 578.835938 393.636719 L 578.847656 400.523438 L 580.144531 400.523438 L 580.132812 391.074219 Z M 579.023438 391.074219 " fill-opacity="1" fill-rule="nonzero"/><path fill="rgb(100%, 61.959839%, 0.389099%)" d="M 581.988281 390.503906 C 583.082031 392.421875 583.570312 394.460938 583.570312 396.824219 C 583.570312 399.183594 583.085938 401.226562 581.988281 403.140625 L 583.21875 403.140625 C 584.257812 401.507812 584.839844 399.308594 584.839844 396.824219 C 584.839844 394.339844 584.257812 392.113281 583.21875 390.503906 Z M 581.988281 390.503906 " fill-opacity="1" fill-rule="nonzero"/><path fill="rgb(100%, 61.959839%, 0.389099%)" d="M 597.625 391.074219 L 589.804688 391.074219 L 589.804688 392.246094 L 593.046875 392.246094 L 593.046875 400.523438 L 594.382812 400.523438 L 594.382812 392.246094 L 597.625 392.246094 Z M 597.625 391.074219 " fill-opacity="1" fill-rule="nonzero"/><path fill="rgb(100%, 61.959839%, 0.389099%)" d="M 601.46875 391.074219 L 597.1875 400.523438 L 598.582031 400.523438 L 599.617188 398.160156 L 604.644531 398.160156 L 605.683594 400.523438 L 607.101562 400.523438 L 602.804688 391.074219 Z M 600.09375 397.082031 L 602.132812 392.449219 L 604.171875 397.082031 Z M 600.09375 397.082031 " fill-opacity="1" fill-rule="nonzero"/><path fill="rgb(100%, 61.959839%, 0.389099%)" d="M 612.71875 392.167969 C 613.785156 392.167969 614.675781 392.503906 615.457031 393.261719 L 616.296875 392.421875 C 615.433594 391.464844 614.164062 390.964844 612.664062 390.964844 C 609.734375 390.964844 607.601562 393.003906 607.601562 395.796875 C 607.601562 398.59375 609.734375 400.632812 612.636719 400.632812 C 613.960938 400.632812 615.269531 400.226562 616.214844 399.429688 L 616.214844 395.746094 L 614.917969 395.746094 L 614.917969 398.824219 C 614.242188 399.253906 613.5 399.429688 612.703125 399.429688 C 610.53125 399.429688 608.949219 397.878906 608.949219 395.796875 C 608.949219 393.691406 610.53125 392.167969 612.71875 392.167969 Z M 612.71875 392.167969 " fill-opacity="1" fill-rule="nonzero"/><path fill="rgb(100%, 61.959839%, 0.389099%)" d="M 728.839844 491.417969 L 728.839844 465.359375 L 702.777344 478.390625 Z M 728.839844 491.417969 " fill-opacity="1" fill-rule="nonzero"/><path fill="rgb(100%, 61.959839%, 0.389099%)" d="M 171.910156 478.019531 C 173.332031 478.019531 174.519531 478.472656 175.5625 479.480469 L 176.679688 478.363281 C 175.527344 477.085938 173.835938 476.421875 171.839844 476.421875 C 167.933594 476.421875 165.09375 479.136719 165.09375 482.859375 C 165.09375 486.582031 167.933594 489.300781 171.804688 489.300781 C 173.566406 489.300781 175.3125 488.761719 176.570312 487.699219 L 176.570312 482.789062 L 174.84375 482.789062 L 174.84375 486.890625 C 173.945312 487.464844 172.957031 487.699219 171.894531 487.699219 C 168.996094 487.699219 166.894531 485.628906 166.894531 482.859375 C 166.890625 480.054688 168.996094 478.019531 171.910156 478.019531 Z M 171.910156 478.019531 " fill-opacity="1" fill-rule="nonzero"/><path fill="rgb(100%, 61.959839%, 0.389099%)" d="M 183.808594 476.566406 L 178.105469 489.15625 L 179.960938 489.15625 L 181.34375 486.007812 L 188.035156 486.007812 L 189.421875 489.15625 L 191.308594 489.15625 L 185.589844 476.566406 Z M 181.972656 484.570312 L 184.691406 478.398438 L 187.40625 484.570312 Z M 181.972656 484.570312 " fill-opacity="1" fill-rule="nonzero"/><path fill="rgb(100%, 61.959839%, 0.389099%)" d="M 409.960938 482.625 C 410.949219 482.140625 411.652344 481.1875 411.652344 479.820312 C 411.652344 477.789062 410.03125 476.566406 407.136719 476.566406 L 401.484375 476.566406 L 401.484375 489.15625 L 407.496094 489.15625 C 410.675781 489.15625 412.316406 487.917969 412.316406 485.757812 C 412.316406 484.082031 411.382812 483.019531 409.960938 482.625 Z M 403.285156 478.019531 L 406.972656 478.019531 C 408.808594 478.019531 409.851562 478.707031 409.851562 480.035156 C 409.851562 481.367188 408.808594 482.050781 406.972656 482.050781 L 403.285156 482.050781 Z M 407.421875 487.695312 L 403.285156 487.695312 L 403.285156 483.507812 L 407.421875 483.507812 C 409.417969 483.507812 410.5 484.15625 410.5 485.609375 C 410.5 487.066406 409.417969 487.695312 407.421875 487.695312 Z M 407.421875 487.695312 " fill-opacity="1" fill-rule="nonzero"/><path fill="rgb(100%, 61.959839%, 0.389099%)" d="M 416.910156 483.523438 L 423.226562 483.523438 L 423.226562 481.996094 L 416.910156 481.996094 L 416.910156 478.128906 L 424 478.128906 L 424 476.566406 L 415.113281 476.566406 L 415.113281 489.15625 L 424.25 489.15625 L 424.25 487.589844 L 416.910156 487.589844 Z M 416.910156 483.523438 " fill-opacity="1" fill-rule="nonzero"/><path fill="rgb(100%, 61.959839%, 0.389099%)" d="M 437.335938 480.953125 C 437.335938 478.21875 435.359375 476.5625 432.082031 476.5625 L 427.171875 476.5625 L 427.171875 489.15625 L 428.972656 489.15625 L 428.972656 485.324219 L 432.085938 485.324219 C 432.355469 485.324219 432.625 485.304688 432.875 485.289062 L 435.59375 489.15625 L 437.554688 489.15625 L 434.566406 484.929688 C 436.328125 484.300781 437.335938 482.894531 437.335938 480.953125 Z M 432.03125 483.796875 L 428.972656 483.796875 L 428.972656 478.128906 L 432.03125 478.128906 C 434.332031 478.128906 435.539062 479.15625 435.539062 480.953125 C 435.539062 482.753906 434.332031 483.796875 432.03125 483.796875 Z M 432.03125 483.796875 " fill-opacity="1" fill-rule="nonzero"/><path fill="rgb(50.19989%, 0%, 34.899902%)" d="M 66.632812 322.695312 C 37.765625 322.695312 14.367188 346.089844 14.367188 374.949219 C 14.367188 403.8125 37.769531 427.207031 66.632812 427.207031 C 95.503906 427.207031 118.902344 403.808594 118.902344 374.949219 C 118.902344 346.089844 95.503906 322.695312 66.632812 322.695312 Z M 66.632812 392.371094 C 57.011719 392.371094 49.210938 384.570312 49.210938 374.949219 C 49.210938 365.332031 57.011719 357.53125 66.632812 357.53125 C 76.257812 357.53125 84.058594 365.332031 84.058594 374.949219 C 84.058594 384.570312 76.257812 392.371094 66.632812 392.371094 Z M 66.632812 392.371094 " fill-opacity="1" fill-rule="nonzero"/><path fill="rgb(50.19989%, 0%, 34.899902%)" d="M 236.785156 378.078125 C 236.785156 366.199219 230.308594 361.234375 222.636719 359.503906 L 222.636719 359.074219 C 229.332031 357.128906 235.058594 352.59375 235.058594 341.792969 C 235.058594 331.105469 225.769531 323.546875 214.535156 323.546875 L 165.066406 323.546875 L 165.066406 397.839844 L 215.183594 397.839844 C 227.171875 397.839844 236.785156 389.957031 236.785156 378.078125 Z M 188.9375 339.851562 L 205.355469 339.851562 C 208.378906 339.851562 210.863281 342.441406 210.863281 345.574219 L 210.863281 346.652344 C 210.863281 349.894531 208.488281 352.484375 205.355469 352.484375 L 188.9375 352.484375 Z M 212.59375 374.730469 C 212.59375 378.078125 210.21875 380.5625 207.085938 380.5625 L 188.941406 380.5625 L 188.941406 367.820312 L 207.085938 367.820312 C 210.21875 367.820312 212.59375 370.410156 212.59375 373.652344 Z M 212.59375 374.730469 " fill-opacity="1" fill-rule="nonzero"/><path fill="rgb(50.19989%, 0%, 34.899902%)" d="M 314.113281 380.023438 L 272.960938 380.023438 L 272.960938 368.683594 L 307.527344 368.683594 L 307.527344 351.621094 L 272.960938 351.621094 L 272.960938 341.363281 L 313.359375 341.363281 L 313.359375 323.546875 L 249.09375 323.546875 L 249.09375 397.839844 L 314.113281 397.839844 Z M 314.113281 380.023438 " fill-opacity="1" fill-rule="nonzero"/><path fill="rgb(50.19989%, 0%, 34.899902%)" d="M 397.597656 346.332031 C 397.597656 334.238281 389.066406 323.546875 372.539062 323.546875 L 327.066406 323.546875 L 327.066406 397.839844 L 350.9375 397.839844 L 350.9375 370.734375 L 359.792969 370.734375 L 372.972656 397.839844 L 399.757812 397.839844 L 383.230469 366.742188 C 392.84375 363.175781 397.597656 354.96875 397.597656 346.332031 Z M 366.597656 354.214844 L 350.9375 354.214844 L 350.9375 340.5 L 366.597656 340.5 C 370.269531 340.5 373.292969 343.304688 373.292969 347.300781 C 373.292969 351.296875 370.269531 354.214844 366.597656 354.214844 Z M 366.597656 354.214844 " fill-opacity="1" fill-rule="nonzero"/><path fill="rgb(50.19989%, 0%, 34.899902%)" d="M 174.589844 415.8125 C 175.582031 415.328125 176.28125 414.375 176.28125 413.007812 C 176.28125 410.976562 174.660156 409.75 171.765625 409.75 L 166.117188 409.75 L 166.117188 422.34375 L 172.125 422.34375 C 175.3125 422.34375 176.949219 421.101562 176.949219 418.941406 C 176.949219 417.269531 176.011719 416.207031 174.589844 415.8125 Z M 167.914062 411.207031 L 171.605469 411.207031 C 173.4375 411.207031 174.484375 411.890625 174.484375 413.222656 C 174.484375 414.554688 173.4375 415.238281 171.605469 415.238281 L 167.914062 415.238281 Z M 172.054688 420.882812 L 167.914062 420.882812 L 167.914062 416.695312 L 172.054688 416.695312 C 174.050781 416.695312 175.132812 417.34375 175.132812 418.796875 C 175.132812 420.253906 174.050781 420.882812 172.054688 420.882812 Z M 172.054688 420.882812 " fill-opacity="1" fill-rule="nonzero"/><path fill="rgb(50.19989%, 0%, 34.899902%)" d="M 181.542969 416.710938 L 187.855469 416.710938 L 187.855469 415.183594 L 181.542969 415.183594 L 181.542969 411.316406 L 188.632812 411.316406 L 188.632812 409.75 L 179.742188 409.75 L 179.742188 422.339844 L 188.882812 422.339844 L 188.882812 420.777344 L 181.542969 420.777344 Z M 181.542969 416.710938 " fill-opacity="1" fill-rule="nonzero"/><path fill="rgb(50.19989%, 0%, 34.899902%)" d="M 201.96875 414.140625 C 201.96875 411.40625 199.992188 409.75 196.714844 409.75 L 191.804688 409.75 L 191.804688 422.34375 L 193.601562 422.34375 L 193.601562 418.511719 L 196.714844 418.511719 C 196.984375 418.511719 197.257812 418.492188 197.507812 418.476562 L 200.222656 422.34375 L 202.183594 422.34375 L 199.199219 418.117188 C 200.960938 417.484375 201.96875 416.082031 201.96875 414.140625 Z M 196.660156 416.980469 L 193.601562 416.980469 L 193.601562 411.316406 L 196.660156 411.316406 C 198.964844 411.316406 200.167969 412.34375 200.167969 414.140625 C 200.167969 415.9375 198.964844 416.980469 196.660156 416.980469 Z M 196.660156 416.980469 " fill-opacity="1" fill-rule="nonzero"/><path fill="rgb(50.19989%, 0%, 34.899902%)" d="M 206.6875 409.75 L 204.890625 409.75 L 204.890625 422.339844 L 213.503906 422.339844 L 213.503906 420.777344 L 206.6875 420.777344 Z M 206.6875 409.75 " fill-opacity="1" fill-rule="nonzero"/><path fill="rgb(50.19989%, 0%, 34.899902%)" d="M 215.582031 409.75 L 217.378906 409.75 L 217.378906 422.34375 L 215.582031 422.34375 Z M 215.582031 409.75 " fill-opacity="1" fill-rule="nonzero"/><path fill="rgb(50.19989%, 0%, 34.899902%)" d="M 230.191406 419.140625 L 222.636719 409.75 L 221.160156 409.75 L 221.160156 422.339844 L 222.960938 422.339844 L 222.960938 412.953125 L 230.515625 422.339844 L 231.992188 422.339844 L 231.992188 409.75 L 230.191406 409.75 Z M 230.191406 419.140625 " fill-opacity="1" fill-rule="nonzero"/><path fill="rgb(50.19989%, 0%, 34.899902%)" d="M 235.957031 419.984375 C 235.273438 419.984375 234.75 420.488281 234.75 421.207031 C 234.75 421.746094 235.058594 422.160156 235.507812 422.324219 L 234.839844 425.003906 L 235.972656 425.003906 L 236.820312 422.503906 C 237.054688 421.835938 237.125 421.566406 237.125 421.207031 C 237.125 420.507812 236.640625 419.984375 235.957031 419.984375 Z M 235.957031 419.984375 " fill-opacity="1" fill-rule="nonzero"/><path fill="rgb(50.19989%, 0%, 34.899902%)" d="M 250.496094 411.207031 C 251.917969 411.207031 253.105469 411.660156 254.148438 412.664062 L 255.265625 411.550781 C 254.113281 410.273438 252.421875 409.609375 250.425781 409.609375 C 246.523438 409.609375 243.679688 412.324219 243.679688 416.046875 C 243.679688 419.769531 246.523438 422.488281 250.390625 422.488281 C 252.152344 422.488281 253.898438 421.949219 255.15625 420.886719 L 255.15625 415.976562 L 253.429688 415.976562 L 253.429688 420.078125 C 252.53125 420.652344 251.542969 420.886719 250.480469 420.886719 C 247.585938 420.886719 245.480469 418.816406 245.480469 416.046875 C 245.476562 413.242188 247.582031 411.207031 250.496094 411.207031 Z M 250.496094 411.207031 " fill-opacity="1" fill-rule="nonzero"/><path fill="rgb(50.19989%, 0%, 34.899902%)" d="M 260.398438 416.710938 L 266.714844 416.710938 L 266.714844 415.183594 L 260.398438 415.183594 L 260.398438 411.316406 L 267.488281 411.316406 L 267.488281 409.75 L 258.601562 409.75 L 258.601562 422.339844 L 267.738281 422.339844 L 267.738281 420.777344 L 260.398438 420.777344 Z M 260.398438 416.710938 " fill-opacity="1" fill-rule="nonzero"/><path fill="rgb(50.19989%, 0%, 34.899902%)" d="M 280.824219 414.140625 C 280.824219 411.40625 278.84375 409.75 275.570312 409.75 L 270.660156 409.75 L 270.660156 422.34375 L 272.457031 422.34375 L 272.457031 418.511719 L 275.570312 418.511719 C 275.839844 418.511719 276.109375 418.492188 276.363281 418.476562 L 279.078125 422.34375 L 281.039062 422.34375 L 278.054688 418.117188 C 279.816406 417.484375 280.824219 416.082031 280.824219 414.140625 Z M 275.515625 416.980469 L 272.457031 416.980469 L 272.457031 411.316406 L 275.515625 411.316406 C 277.820312 411.316406 279.027344 412.34375 279.027344 414.140625 C 279.027344 415.9375 277.820312 416.980469 275.515625 416.980469 Z M 275.515625 416.980469 " fill-opacity="1" fill-rule="nonzero"/><path fill="rgb(50.19989%, 0%, 34.899902%)" d="M 295.65625 409.75 L 290.472656 418.601562 L 285.21875 409.75 L 283.746094 409.75 L 283.746094 422.339844 L 285.472656 422.339844 L 285.472656 413.222656 L 290.023438 420.8125 L 290.851562 420.8125 L 295.402344 413.167969 L 295.421875 422.339844 L 297.148438 422.339844 L 297.128906 409.75 Z M 295.65625 409.75 " fill-opacity="1" fill-rule="nonzero"/><path fill="rgb(50.19989%, 0%, 34.899902%)" d="M 304.734375 409.75 L 299.03125 422.34375 L 300.882812 422.34375 L 302.269531 419.195312 L 308.960938 419.195312 L 310.34375 422.34375 L 312.234375 422.34375 L 306.511719 409.75 Z M 302.898438 417.753906 L 305.613281 411.585938 L 308.328125 417.753906 Z M 302.898438 417.753906 " fill-opacity="1" fill-rule="nonzero"/><path fill="rgb(50.19989%, 0%, 34.899902%)" d="M 323.144531 419.140625 L 315.589844 409.75 L 314.113281 409.75 L 314.113281 422.339844 L 315.910156 422.339844 L 315.910156 412.953125 L 323.46875 422.339844 L 324.941406 422.339844 L 324.941406 409.75 L 323.144531 409.75 Z M 323.144531 419.140625 " fill-opacity="1" fill-rule="nonzero"/><path fill="rgb(50.19989%, 0%, 34.899902%)" d="M 332.722656 416.386719 L 328.691406 409.75 L 326.765625 409.75 L 331.769531 417.953125 L 331.769531 422.339844 L 333.550781 422.339844 L 333.550781 417.988281 L 338.550781 409.75 L 336.769531 409.75 Z M 332.722656 416.386719 " fill-opacity="1" fill-rule="nonzero"/><path fill="rgb(50.19989%, 0%, 34.899902%)" d="M 460.460938 449.742188 C 460.460938 459.511719 466.078125 464.371094 474.015625 464.371094 C 481.84375 464.371094 487.351562 459.78125 487.351562 452.277344 C 487.351562 445.53125 482.113281 441.75 475.3125 441.75 C 470.558594 441.75 465.699219 443.695312 463.324219 448.445312 C 463.648438 439.105469 468.292969 428.472656 480.710938 428.472656 C 483.519531 428.472656 486.21875 428.957031 488.21875 430.308594 L 489.621094 428.039062 C 487.300781 426.636719 484.222656 426.042969 480.875 426.042969 C 465.859375 426.042969 460.460938 438.945312 460.460938 449.742188 Z M 474.824219 444.125 C 480.546875 444.125 484.597656 447.09375 484.597656 452.492188 C 484.597656 458.378906 480.332031 461.996094 473.960938 461.996094 C 467.210938 461.996094 463.808594 457.621094 463.808594 453.519531 C 463.808594 448.335938 468.238281 444.125 474.824219 444.125 Z M 474.824219 444.125 " fill-opacity="1" fill-rule="nonzero"/><path fill="rgb(50.19989%, 0%, 34.899902%)" d="M 520.507812 441.964844 L 517.859375 441.964844 L 515.96875 451.199219 L 498.097656 451.199219 L 522.9375 426.3125 L 519.644531 426.3125 L 494.320312 451.628906 L 493.941406 453.628906 L 515.429688 453.628906 L 513.324219 464.097656 L 516.078125 464.097656 L 518.183594 453.628906 L 526.121094 453.628906 L 526.605469 451.199219 L 518.671875 451.199219 Z M 520.507812 441.964844 " fill-opacity="1" fill-rule="nonzero"/><path fill="rgb(50.19989%, 0%, 34.899902%)" d="M 551.449219 426.042969 C 543.1875 426.042969 537.84375 430.089844 537.84375 436.570312 C 537.84375 439.96875 539.625 442.507812 543.027344 443.964844 C 536.601562 445.207031 532.875 448.988281 532.875 454.546875 C 532.875 460.644531 537.949219 464.371094 546.425781 464.371094 C 555.550781 464.371094 561.492188 460 561.492188 453.035156 C 561.492188 449.09375 559.277344 446.179688 555.175781 444.667969 C 560.683594 443.425781 563.8125 439.917969 563.8125 435.058594 C 563.8125 429.496094 558.902344 426.042969 551.449219 426.042969 Z M 558.738281 453.085938 C 558.738281 458.539062 554.148438 461.992188 546.535156 461.992188 C 539.625 461.992188 535.628906 459.078125 535.628906 454.382812 C 535.628906 448.984375 540.164062 445.53125 547.722656 445.53125 C 554.691406 445.53125 558.738281 448.445312 558.738281 453.085938 Z M 550.316406 443.261719 C 544.105469 443.261719 540.652344 440.617188 540.652344 436.40625 C 540.652344 431.496094 544.808594 428.417969 551.289062 428.417969 C 557.28125 428.417969 561.0625 431.0625 561.0625 435.382812 C 561.058594 440.132812 557.011719 443.261719 550.316406 443.261719 Z M 550.316406 443.261719 " fill-opacity="1" fill-rule="nonzero"/><path fill="rgb(50.19989%, 0%, 34.899902%)" d="M 570.890625 450.820312 L 584.765625 450.820312 L 585.253906 448.390625 L 571.378906 448.390625 Z M 570.890625 450.820312 " fill-opacity="1" fill-rule="nonzero"/><path fill="rgb(50.19989%, 0%, 34.899902%)" d="M 596.269531 428.792969 L 616.300781 428.792969 L 602.371094 443.101562 L 601.941406 445.097656 L 603.992188 445.097656 C 610.632812 445.097656 613.816406 447.632812 613.816406 452.332031 C 613.816406 458.105469 609.226562 461.832031 601.777344 461.832031 C 596.378906 461.832031 592.382812 459.886719 590.546875 457.1875 L 588.875 459.238281 C 591.035156 462.316406 595.734375 464.367188 601.617188 464.367188 C 610.636719 464.367188 616.628906 459.398438 616.628906 452.222656 C 616.628906 446.554688 612.902344 443.152344 605.882812 442.828125 L 620.082031 428.253906 L 620.40625 426.308594 L 596.757812 426.308594 Z M 596.269531 428.792969 " fill-opacity="1" fill-rule="nonzero"/><path fill="rgb(50.19989%, 0%, 34.899902%)" d="M 651.726562 434.789062 C 651.726562 429.605469 647.945312 426.042969 640.496094 426.042969 C 635.257812 426.042969 630.34375 427.984375 627.265625 431.277344 L 629.210938 432.949219 C 631.855469 430.089844 635.960938 428.523438 640.171875 428.523438 C 646.21875 428.523438 648.972656 431.117188 648.972656 435.113281 C 648.972656 438.726562 647.300781 441.640625 641.574219 446.339844 L 622.246094 462.15625 L 621.8125 464.097656 L 647.839844 464.097656 L 648.324219 461.617188 L 626.671875 461.617188 L 643.464844 447.960938 C 649.835938 442.777344 651.726562 439.050781 651.726562 434.789062 Z M 651.726562 434.789062 " fill-opacity="1" fill-rule="nonzero"/><path fill="rgb(50.19989%, 0%, 34.899902%)" d="M 673.109375 426.042969 C 665.28125 426.042969 659.71875 430.628906 659.71875 438.132812 C 659.71875 444.878906 664.957031 448.660156 671.761719 448.660156 C 676.566406 448.660156 681.371094 446.71875 683.746094 441.964844 C 683.476562 451.304688 678.777344 461.9375 666.414062 461.9375 C 663.550781 461.9375 660.90625 461.453125 658.855469 460.101562 L 657.503906 462.371094 C 659.773438 463.773438 662.90625 464.367188 666.199219 464.367188 C 681.207031 464.367188 686.605469 451.464844 686.605469 440.667969 C 686.609375 430.898438 681.046875 426.042969 673.109375 426.042969 Z M 672.246094 446.285156 C 666.578125 446.285156 662.527344 443.316406 662.527344 437.917969 C 662.527344 432.035156 666.738281 428.417969 673.109375 428.417969 C 679.914062 428.417969 683.261719 432.789062 683.261719 436.890625 C 683.261719 442.074219 678.832031 446.285156 672.246094 446.285156 Z M 672.246094 446.285156 " fill-opacity="1" fill-rule="nonzero"/></svg>