<?xml version="1.0" encoding="UTF-8"?><svg xmlns="http://www.w3.org/2000/svg" xmlns:xlink="http://www.w3.org/1999/xlink" contentScriptType="text/ecmascript" width="750" zoomAndPan="magnify" contentStyleType="text/css" viewBox="0 0 750 749.999995" height="749.999995" preserveAspectRatio="xMidYMid meet" version="1.0"><defs><clipPath id="clip-0"><path d="M 0 107.726562 L 750 107.726562 L 750 642.476562 L 0 642.476562 Z M 0 107.726562 " clip-rule="nonzero"/></clipPath></defs><path fill="rgb(40.779114%, 77.648926%, 78.42865%)" d="M 41.800781 152.871094 L 708.199219 152.871094 L 708.199219 597.347656 L 41.800781 597.347656 Z M 41.800781 152.871094 " fill-opacity="1" fill-rule="nonzero"/><path fill="rgb(98.81897%, 80.389404%, 3.529358%)" d="M 292.460938 237.738281 C 306.507812 203.171875 340.433594 178.777344 380.078125 178.777344 C 419.722656 178.777344 453.644531 203.171875 467.695312 237.738281 Z M 708.199219 597.242188 L 41.800781 597.242188 L 41.800781 542.480469 L 708.199219 542.480469 Z M 89.054688 507.210938 L 82.867188 507.210938 L 82.867188 543.753906 L 89.054688 543.753906 Z M 120.730469 512.078125 L 113.480469 512.078125 L 113.480469 543.289062 L 120.730469 543.289062 Z M 661.15625 542.6875 L 669.378906 542.6875 L 669.378906 504.03125 L 661.15625 504.03125 Z M 629.492188 542.226562 L 636.742188 542.226562 L 636.742188 511.015625 L 629.492188 511.015625 Z M 629.492188 542.226562 " fill-opacity="1" fill-rule="nonzero"/><path fill="rgb(95.689392%, 57.649231%, 68.238831%)" d="M 617.722656 244.042969 L 142.386719 244.042969 L 137.144531 236.402344 L 622.992188 236.402344 Z M 617.722656 244.042969 " fill-opacity="1" fill-rule="nonzero"/><path fill="rgb(95.689392%, 57.649231%, 68.238831%)" d="M 134.121094 330.722656 L 626.035156 330.722656 L 626.035156 341.421875 L 134.121094 341.421875 Z M 134.121094 330.722656 " fill-opacity="1" fill-rule="nonzero"/><path fill="rgb(95.689392%, 57.649231%, 68.238831%)" d="M 192.636719 362.125 L 192.636719 539.707031 L 161.335938 539.707031 L 161.335938 362.125 Z M 232.582031 362.125 L 232.582031 539.707031 L 263.882812 539.707031 L 263.882812 362.125 Z M 307.738281 362.125 L 307.738281 539.707031 L 339.039062 539.707031 L 339.039062 362.125 Z M 567.503906 362.125 L 567.503906 539.707031 L 598.804688 539.707031 L 598.804688 362.125 Z M 496.257812 362.125 L 496.257812 539.707031 L 527.558594 539.707031 L 527.558594 362.125 Z M 421.113281 362.125 L 421.113281 539.707031 L 452.417969 539.707031 L 452.417969 362.125 Z M 200.859375 331.15625 L 200.859375 355.5625 L 155.375 355.5625 C 155.207031 347.054688 151.867188 338.769531 145.757812 331.652344 L 145.339844 331.15625 Z M 225.496094 331.15625 L 225.496094 355.5625 L 270.984375 355.5625 L 270.984375 331.15625 Z M 300.636719 331.15625 L 300.636719 355.5625 L 346.125 355.5625 L 346.125 331.15625 Z M 559.28125 331.15625 L 559.28125 355.5625 L 604.765625 355.5625 C 604.929688 347.054688 608.269531 338.769531 614.382812 331.652344 L 614.800781 331.15625 Z M 489.15625 331.15625 L 489.15625 355.5625 L 534.644531 355.5625 L 534.644531 331.15625 Z M 414.015625 331.15625 L 414.015625 355.5625 L 459.5 355.5625 L 459.5 331.15625 Z M 134.121094 303.46875 L 134.121094 332.296875 L 626.035156 332.296875 L 626.035156 303.46875 Z M 134.121094 303.46875 " fill-opacity="1" fill-rule="nonzero"/><path fill="rgb(92.549133%, 86.669922%, 88.62915%)" d="M 537.21875 227.414062 C 537.21875 227.382812 537.21875 227.351562 537.21875 227.324219 C 537.21875 206.363281 553.964844 189.355469 574.601562 189.355469 C 585.355469 189.355469 595.03125 193.96875 601.859375 201.34375 C 602.984375 177.113281 627.15625 157.757812 656.8125 157.757812 C 680.296875 157.757812 700.320312 169.90625 708.199219 186.988281 L 708.199219 290.566406 L 540.796875 290.566406 C 540.722656 290.566406 540.632812 290.550781 540.558594 290.550781 C 540.363281 290.550781 540.167969 290.566406 539.960938 290.566406 C 518.976562 290.566406 501.960938 276.40625 501.960938 258.9375 C 501.976562 242.246094 517.523438 228.582031 537.21875 227.414062 Z M 244.9375 258.9375 C 244.9375 276.40625 228.117188 290.566406 207.359375 290.566406 C 207.164062 290.566406 206.96875 290.550781 206.773438 290.550781 C 206.699219 290.550781 206.625 290.566406 206.535156 290.566406 L 41.035156 290.566406 L 41.035156 186.988281 C 48.824219 169.90625 68.625 157.757812 91.839844 157.757812 C 121.164062 157.757812 145.070312 177.113281 146.175781 201.34375 C 152.917969 193.96875 162.488281 189.355469 173.121094 189.355469 C 193.535156 189.355469 210.085938 206.347656 210.085938 227.324219 C 210.085938 227.351562 210.085938 227.382812 210.085938 227.414062 C 229.570312 228.582031 244.9375 242.246094 244.9375 258.9375 Z M 626.035156 312.757812 L 134.121094 312.757812 L 134.121094 291.347656 L 626.035156 291.347656 Z M 173.691406 366.5625 L 167.535156 366.5625 L 167.535156 527.691406 L 173.691406 527.691406 Z M 180.296875 366.5625 L 186.449219 366.5625 L 186.449219 527.691406 L 180.296875 527.691406 M 244.9375 527.691406 L 238.78125 527.691406 L 238.78125 366.5625 L 244.9375 366.5625 Z M 257.699219 527.691406 L 251.542969 527.691406 L 251.542969 366.5625 L 257.699219 366.5625 Z M 320.078125 527.691406 L 313.921875 527.691406 L 313.921875 366.5625 L 320.078125 366.5625 Z M 332.839844 527.691406 L 326.683594 527.691406 L 326.683594 366.5625 L 332.839844 366.5625 Z M 433.441406 527.691406 L 427.285156 527.691406 L 427.285156 366.5625 L 433.441406 366.5625 Z M 446.203125 527.691406 L 440.046875 527.691406 L 440.046875 366.5625 L 446.203125 366.5625 Z M 508.597656 527.691406 L 502.441406 527.691406 L 502.441406 366.5625 L 508.597656 366.5625 Z M 521.359375 527.691406 L 515.203125 527.691406 L 515.203125 366.5625 L 521.359375 366.5625 Z M 579.84375 527.691406 L 573.6875 527.691406 L 573.6875 366.5625 L 579.84375 366.5625 Z M 592.605469 527.691406 L 586.449219 527.691406 L 586.449219 366.5625 L 592.605469 366.5625 Z M 592.605469 527.691406 " fill-opacity="1" fill-rule="nonzero"/><path fill="rgb(95.689392%, 57.649231%, 68.238831%)" d="M 142.867188 238.996094 L 617.273438 238.996094 L 617.273438 286.671875 L 142.867188 286.671875 Z M 142.867188 238.996094 " fill-opacity="1" fill-rule="nonzero"/><path fill="rgb(95.689392%, 57.649231%, 68.238831%)" d="M 295.648438 243.910156 L 464.503906 243.910156 L 464.503906 269.875 L 295.648438 269.875 Z M 295.648438 243.910156 " fill-opacity="1" fill-rule="nonzero"/><path fill="rgb(94.898987%, 39.99939%, 15.689087%)" d="M 631.832031 282.371094 L 626.363281 291.542969 L 133.746094 291.542969 L 128.324219 282.371094 Z M 626.035156 316.324219 L 134.121094 316.324219 L 134.121094 300.574219 L 626.035156 300.574219 Z M 337.648438 212.128906 C 343.742188 212.113281 348.699219 215.890625 348.699219 220.535156 L 348.699219 223.832031 L 337.527344 223.832031 L 337.527344 212.128906 Z M 422.628906 212.128906 L 422.628906 223.832031 L 411.453125 223.832031 L 411.453125 220.535156 C 411.453125 215.890625 416.398438 212.113281 422.507812 212.128906 Z M 344.894531 217.703125 C 351.007812 217.6875 355.964844 221.449219 355.964844 226.109375 L 355.964844 237.929688 L 344.789062 237.929688 L 344.789062 217.703125 Z M 464.488281 246.066406 L 295.648438 246.066406 L 295.648438 231.324219 L 464.503906 231.324219 L 464.503906 246.066406 Z M 415.363281 217.703125 L 415.363281 231.308594 L 404.191406 231.308594 L 404.191406 223.351562 C 404.191406 220.222656 409.148438 217.6875 415.257812 217.703125 Z M 138.375 251.820312 L 622.515625 251.820312 L 622.515625 243.191406 L 137.640625 243.191406 C 137.878906 246.050781 138.132812 248.898438 138.375 251.820312 Z M 603.925781 535.992188 L 603.925781 542.496094 L 562.394531 542.496094 L 562.394531 535.992188 Z M 156.226562 535.992188 L 156.226562 542.496094 L 197.757812 542.496094 L 197.757812 535.992188 Z M 269.003906 535.992188 L 269.003906 542.496094 L 227.472656 542.496094 L 227.472656 535.992188 Z M 344.148438 535.992188 L 344.148438 542.496094 L 302.613281 542.496094 L 302.613281 535.992188 Z M 532.664062 535.992188 L 532.664062 542.496094 L 491.132812 542.496094 L 491.132812 535.992188 Z M 457.523438 535.992188 L 457.523438 542.496094 L 415.992188 542.496094 L 415.992188 535.992188 Z M 156.226562 356.222656 L 156.226562 362.726562 L 197.757812 362.726562 L 197.757812 356.222656 Z M 269.003906 356.222656 L 269.003906 362.726562 L 227.472656 362.726562 L 227.472656 356.222656 Z M 344.148438 356.222656 L 344.148438 362.726562 L 302.613281 362.726562 L 302.613281 356.222656 Z M 603.925781 356.222656 L 603.925781 362.726562 L 562.394531 362.726562 L 562.394531 356.222656 Z M 532.664062 356.222656 L 532.664062 362.726562 L 491.132812 362.726562 L 491.132812 356.222656 Z M 457.523438 356.222656 L 457.523438 362.726562 L 415.992188 362.726562 L 415.992188 356.222656 Z M 112.867188 514.671875 L 103.550781 485.050781 L 112.476562 485.050781 L 84.5625 396.242188 L 58.679688 485.050781 L 67.695312 485.050781 L 59.070312 514.671875 Z M 691.15625 513.605469 L 682.527344 483.984375 L 691.542969 483.984375 L 665.664062 395.179688 L 637.746094 483.984375 L 646.671875 483.984375 L 637.355469 513.605469 Z M 691.15625 513.605469 " fill-opacity="1" fill-rule="nonzero"/><g clip-path="url(#clip-0)"><path fill="rgb(95.689392%, 57.649231%, 68.238831%)" d="M 487.464844 107.726562 L 462.273438 107.726562 C 462.257812 126.292969 437.546875 126.367188 437.53125 107.726562 L 412.339844 107.726562 C 412.324219 126.335938 387.609375 126.335938 387.597656 107.726562 L 362.402344 107.726562 C 362.390625 126.367188 337.675781 126.292969 337.660156 107.726562 L 312.5 107.726562 C 312.484375 126.261719 287.773438 126.410156 287.757812 107.726562 L 262.566406 107.726562 C 262.550781 126.320312 237.839844 126.335938 237.824219 107.726562 L 212.632812 107.726562 C 212.617188 126.335938 187.902344 126.335938 187.890625 107.726562 L 162.695312 107.726562 C 162.683594 126.367188 137.96875 126.292969 137.953125 107.726562 L 112.792969 107.726562 C 112.777344 126.292969 88.066406 126.367188 88.050781 107.726562 L 62.875 107.726562 C 62.859375 126.335938 38.144531 126.335938 38.132812 107.726562 L 12.9375 107.726562 C 12.9375 115.308594 7.53125 121.796875 0.566406 121.796875 L 0.566406 147.132812 C 17 147.132812 16.953125 175.285156 0.566406 175.285156 L 0.566406 200.578125 C 16.894531 200.578125 17 228.730469 0.566406 228.730469 L 0.566406 254.082031 C 16.953125 254.082031 16.9375 282.238281 0.566406 282.238281 L 0.566406 307.527344 C 16.894531 307.527344 17 335.679688 0.566406 335.679688 L 0.566406 361.019531 C 16.9375 361.019531 16.910156 389.171875 0.566406 389.171875 L 0.566406 414.464844 C 16.9375 414.464844 16.96875 442.617188 0.566406 442.617188 L 0.566406 467.953125 C 16.953125 467.953125 16.921875 496.105469 0.566406 496.105469 L 0.566406 521.398438 C 16.9375 521.398438 16.96875 549.550781 0.566406 549.550781 L 0.566406 574.886719 C 16.953125 574.886719 16.921875 603.042969 0.566406 603.042969 L 0.566406 628.332031 C 7.414062 628.332031 12.9375 634.6875 12.9375 642.417969 L 38.132812 642.417969 C 38.132812 623.75 62.875 623.792969 62.875 642.417969 L 88.066406 642.417969 C 88.066406 623.597656 112.808594 623.914062 112.808594 642.417969 L 137.953125 642.417969 C 137.953125 623.777344 162.695312 623.703125 162.695312 642.417969 L 187.890625 642.417969 C 187.890625 623.777344 212.632812 623.761719 212.632812 642.417969 L 237.824219 642.417969 C 237.824219 623.75 262.566406 623.792969 262.566406 642.417969 L 287.757812 642.417969 C 287.757812 623.597656 312.5 623.914062 312.5 642.417969 L 337.648438 642.417969 C 337.648438 623.792969 362.390625 623.75 362.390625 642.417969 L 387.582031 642.417969 C 387.582031 623.777344 412.324219 623.761719 412.324219 642.417969 L 437.515625 642.417969 C 437.515625 623.761719 462.257812 623.792969 462.257812 642.417969 L 487.40625 642.417969 C 487.40625 623.914062 512.148438 623.597656 512.148438 642.417969 L 537.339844 642.417969 C 537.339844 623.808594 562.082031 623.75 562.082031 642.417969 L 587.273438 642.417969 C 587.273438 623.777344 612.015625 623.761719 612.015625 642.417969 L 637.207031 642.417969 C 637.207031 623.777344 661.949219 623.792969 661.949219 642.417969 L 687.097656 642.417969 C 687.097656 623.867188 711.882812 623.644531 711.882812 642.417969 L 737.03125 642.417969 C 737.03125 634.65625 742.585938 628.332031 749.417969 628.332031 L 749.417969 603.027344 C 733.046875 603.027344 733.015625 574.875 749.417969 574.875 L 749.417969 549.535156 C 733.03125 549.535156 733.015625 521.382812 749.417969 521.382812 L 749.417969 496.078125 C 733.046875 496.078125 733.015625 467.921875 749.417969 467.921875 L 749.417969 442.585938 C 733.03125 442.585938 733.015625 414.433594 749.417969 414.433594 L 749.417969 389.125 C 733.015625 389.125 732.972656 360.972656 749.417969 360.972656 L 749.417969 335.636719 C 733.015625 335.636719 733.046875 307.484375 749.417969 307.484375 L 749.417969 282.191406 C 733.0625 282.191406 733.015625 254.039062 749.417969 254.039062 L 749.417969 228.746094 C 732.988281 228.746094 733.015625 200.59375 749.417969 200.59375 L 749.417969 175.300781 C 733.0625 175.300781 733.015625 147.148438 749.417969 147.148438 L 749.417969 121.796875 C 742.601562 121.796875 737.046875 115.503906 737.03125 107.726562 L 711.867188 107.726562 C 711.855469 126.292969 687.140625 126.367188 687.125 107.726562 L 661.964844 107.726562 C 661.949219 126.335938 637.238281 126.335938 637.222656 107.726562 L 612.03125 107.726562 C 612.015625 126.320312 587.304688 126.335938 587.289062 107.726562 L 562.097656 107.726562 C 562.082031 126.367188 537.367188 126.292969 537.355469 107.726562 L 512.207031 107.726562 C 512.191406 126.292969 487.480469 126.367188 487.464844 107.726562 Z M 708.199219 595.566406 L 41.800781 595.566406 L 41.800781 154.65625 L 708.199219 154.65625 Z M 93.082031 515.148438 L 100.839844 491.613281 L 92.738281 491.613281 L 116.011719 421.039062 L 141.113281 491.613281 L 133.085938 491.613281 L 141.460938 515.148438 Z M 608.75 514.070312 L 617.121094 490.53125 L 609.09375 490.53125 L 634.195312 419.960938 L 657.472656 490.53125 L 649.367188 490.53125 L 657.128906 514.070312 Z M 608.75 514.070312 " fill-opacity="1" fill-rule="nonzero"/></g></svg>