<svg xmlns="http://www.w3.org/2000/svg" xmlns:xlink="http://www.w3.org/1999/xlink" width="75" viewBox="0 0 75 75" height="75" version="1.0"><defs><g id="a"><path d="M 48.09375 0 L 32.734375 0 L 14.703125 -20.75 L 14.703125 0 L 3.5625 0 L 3.5625 -48.921875 L 14.703125 -48.921875 L 14.703125 -28.9375 L 31.484375 -48.921875 L 45 -48.921875 L 25.3125 -25.734375 Z M 48.09375 0"/></g><g id="c"><path d="M 10.3125 -12.6875 C 12.207031 -12.6875 13.816406 -12.023438 15.140625 -10.703125 C 16.472656 -9.378906 17.140625 -7.769531 17.140625 -5.875 C 17.140625 -4.007812 16.472656 -2.414062 15.140625 -1.09375 C 13.816406 0.226562 12.207031 0.890625 10.3125 0.890625 C 8.457031 0.890625 6.867188 0.226562 5.546875 -1.09375 C 4.222656 -2.414062 3.5625 -4.007812 3.5625 -5.875 C 3.5625 -7.769531 4.222656 -9.378906 5.546875 -10.703125 C 6.867188 -12.023438 8.457031 -12.6875 10.3125 -12.6875 Z M 10.3125 -12.6875"/></g><g id="d"><path d="M 22.484375 -20.46875 C 22.484375 -19.070312 22.390625 -17.691406 22.203125 -16.328125 C 22.023438 -14.972656 21.804688 -13.632812 21.546875 -12.3125 C 21.472656 -11.957031 21.367188 -11.390625 21.234375 -10.609375 C 21.097656 -9.835938 20.929688 -8.972656 20.734375 -8.015625 C 20.535156 -7.066406 20.296875 -6.078125 20.015625 -5.046875 C 19.734375 -4.023438 19.421875 -3.097656 19.078125 -2.265625 C 18.742188 -1.429688 18.375 -0.738281 17.96875 -0.1875 C 17.5625 0.351562 17.128906 0.625 16.671875 0.625 C 16.203125 0.625 15.75 0.394531 15.3125 -0.0625 C 14.882812 -0.53125 14.488281 -1.117188 14.125 -1.828125 C 13.769531 -2.535156 13.441406 -3.332031 13.140625 -4.21875 C 12.835938 -5.101562 12.578125 -5.957031 12.359375 -6.78125 C 12.140625 -7.601562 11.953125 -8.359375 11.796875 -9.046875 C 11.648438 -9.734375 11.539062 -10.25 11.46875 -10.59375 C 11.375 -10.289062 11.226562 -9.804688 11.03125 -9.140625 C 10.832031 -8.484375 10.582031 -7.742188 10.28125 -6.921875 C 9.976562 -6.097656 9.640625 -5.253906 9.265625 -4.390625 C 8.898438 -3.535156 8.515625 -2.742188 8.109375 -2.015625 C 7.703125 -1.296875 7.273438 -0.703125 6.828125 -0.234375 C 6.390625 0.222656 5.953125 0.453125 5.515625 0.453125 C 4.929688 0.453125 4.414062 0.195312 3.96875 -0.3125 C 3.53125 -0.820312 3.160156 -1.476562 2.859375 -2.28125 C 2.554688 -3.082031 2.300781 -3.976562 2.09375 -4.96875 C 1.882812 -5.957031 1.71875 -6.929688 1.59375 -7.890625 C 1.476562 -8.859375 1.382812 -9.757812 1.3125 -10.59375 C 1.25 -11.4375 1.207031 -12.101562 1.1875 -12.59375 C 1.113281 -13.707031 1.046875 -14.796875 0.984375 -15.859375 C 0.929688 -16.929688 0.90625 -18.023438 0.90625 -19.140625 C 0.90625 -19.535156 0.914062 -20.078125 0.9375 -20.765625 C 0.957031 -21.453125 1.039062 -22.125 1.1875 -22.78125 C 1.34375 -23.445312 1.578125 -24.03125 1.890625 -24.53125 C 2.210938 -25.03125 2.675781 -25.300781 3.28125 -25.34375 C 3.789062 -25.363281 4.226562 -25.15625 4.59375 -24.71875 C 4.96875 -24.28125 5.28125 -23.691406 5.53125 -22.953125 C 5.789062 -22.222656 5.992188 -21.410156 6.140625 -20.515625 C 6.296875 -19.617188 6.414062 -18.753906 6.5 -17.921875 C 6.582031 -17.085938 6.632812 -16.320312 6.65625 -15.625 C 6.675781 -14.925781 6.675781 -14.414062 6.65625 -14.09375 L 6.625 -13.171875 C 6.695312 -13.472656 6.816406 -13.945312 6.984375 -14.59375 C 7.160156 -15.25 7.375 -15.988281 7.625 -16.8125 C 7.882812 -17.644531 8.160156 -18.492188 8.453125 -19.359375 C 8.742188 -20.234375 9.050781 -21.03125 9.375 -21.75 C 9.695312 -22.476562 10.019531 -23.078125 10.34375 -23.546875 C 10.675781 -24.023438 10.992188 -24.273438 11.296875 -24.296875 C 11.691406 -24.328125 12.066406 -24.097656 12.421875 -23.609375 C 12.785156 -23.117188 13.113281 -22.484375 13.40625 -21.703125 C 13.695312 -20.921875 13.957031 -20.050781 14.1875 -19.09375 C 14.425781 -18.144531 14.628906 -17.222656 14.796875 -16.328125 C 14.972656 -15.441406 15.109375 -14.632812 15.203125 -13.90625 C 15.296875 -13.1875 15.363281 -12.675781 15.40625 -12.375 C 15.4375 -12.75 15.492188 -13.335938 15.578125 -14.140625 C 15.671875 -14.941406 15.800781 -15.835938 15.96875 -16.828125 C 16.132812 -17.816406 16.335938 -18.828125 16.578125 -19.859375 C 16.816406 -20.890625 17.097656 -21.832031 17.421875 -22.6875 C 17.753906 -23.550781 18.128906 -24.253906 18.546875 -24.796875 C 18.960938 -25.347656 19.425781 -25.625 19.9375 -25.625 C 20.519531 -25.625 20.984375 -25.429688 21.328125 -25.046875 C 21.679688 -24.660156 21.9375 -24.195312 22.09375 -23.65625 C 22.257812 -23.113281 22.363281 -22.546875 22.40625 -21.953125 C 22.457031 -21.359375 22.484375 -20.863281 22.484375 -20.46875 Z M 22.484375 -20.46875"/></g></defs><g fill="#FF5990"><use y="70.415" xmlns:xlink="http://www.w3.org/1999/xlink" xlink:href="#a" xlink:type="simple" xlink:actuate="onLoad" xlink:show="embed"/></g><g fill="#FF5990"><use x="43.701" y="70.415" xmlns:xlink="http://www.w3.org/1999/xlink" xlink:href="#b" xlink:type="simple" xlink:actuate="onLoad" xlink:show="embed"/></g><g fill="#FF5990"><use x="56.924" y="70.415" xmlns:xlink="http://www.w3.org/1999/xlink" xlink:href="#c" xlink:type="simple" xlink:actuate="onLoad" xlink:show="embed"/></g><g fill="#FF5990"><use x="74.648" y="70.415" xmlns:xlink="http://www.w3.org/1999/xlink" xlink:href="#b" xlink:type="simple" xlink:actuate="onLoad" xlink:show="embed"/></g><g><use x="37.573" y="58.039" xmlns:xlink="http://www.w3.org/1999/xlink" xlink:href="#d" xlink:type="simple" xlink:actuate="onLoad" xlink:show="embed"/></g></svg>